# xmcd
#
# Track frame offsets:
#	150
#	10976
#	22025
#	34148
#	44525
#	58401
#	69231
#	82947
#	96711
#	107749
#	115829
#	129807
#	141210
#	150427
#	161665
#	171384
#	184820
#	199867
#	212837
#	223371
#	234803
#	247477
#
# Disc length: 3433 seconds
# Revision: 0
# Processed by: cddbd v1.5.2PL0 Copyright (c) Steve Scherf et al.
# Submitted via: dBpowerAMP V12.0
#
DISCID=470d6716
DTITLE=Various Artist - The Complete Modern and Kent Recordings
DYEAR=1958
DGENRE=Rhythm and Blues
TTITLE0=Etta James - Baby Baby Every Night
TTITLE1=Etta James - Sunshine Of Love
TTITLE2=Etta James - How Big A Fool
TTITLE3=Betty and Dupree (Etta James and Harvey Fuqua) - If It Ain't One Thing
TTITLE4=Betty and Dupree (Etta James and Harvey Fuqua) - I Hope You're Satisfied
TTITLE5=Etta James - Dance With Me, Henry
TTITLE6=Etta James - Don't You Remember
TTITLE7=Etta James - Hickory Dickory Dock
TTITLE8=Etta James - Nobody Loves You Like Me
TTITLE9=Betty and Dupree (Etta James and Harvey Fuqua) - We're In Love
TTITLE10=Etta James - You Know What I Mean
TTITLE11=Etta James - Strange Things Happening
TTITLE12=Etta James - Be My Lovey Dovey (rehearsal)
TTITLE13=Etta James - Tough Lover (Take 2)
TTITLE14=Etta James - Good Lookin' (Take 8)
TTITLE15=Etta James - Hey Henry (alt. take)
TTITLE16=Etta James - Crazy Feeling (without group)
TTITLE17=Etta James - Market Place (alt. take)
TTITLE18=Etta James - Hey Henry (alt. take)
TTITLE19=Etta James - Good Rockin' Daddy (alt. mix)
TTITLE20=Etta James - How Big A Fool (harmony vocal version)
TTITLE21=Etta James - That's All (alt. take)
EXTD=
EXTT0=
EXTT1=
EXTT2=
EXTT3=
EXTT4=
EXTT5=
EXTT6=
EXTT7=
EXTT8=
EXTT9=
EXTT10=
EXTT11=
EXTT12=
EXTT13=
EXTT14=
EXTT15=
EXTT16=
EXTT17=
EXTT18=
EXTT19=
EXTT20=
EXTT21=
PLAYORDER=
